<svg version="1.1" id="Layer_1" xmlns="http://www.w3.org/2000/svg" xmlns:xlink="http://www.w3.org/1999/xlink" x="0px" y="0px"
	 width="100%" viewBox="0 0 624 624" enable-background="new 0 0 624 624" xml:space="preserve">
<path fill="#FFFFFFFF" opacity="1.000000" stroke="none" 
	d="
M194.520569,577.319214 
	C206.556091,576.539795 218.140747,575.847290 230.078308,575.133728 
	C228.614197,571.751892 227.118256,568.816467 226.052246,565.732361 
	C223.354691,557.927979 225.447815,550.998657 230.325058,544.680115 
	C235.925217,537.424988 241.677811,530.267456 245.625107,521.907166 
	C248.579788,515.649231 250.626434,509.266449 249.235443,502.138184 
	C248.359222,497.647980 245.913177,495.636230 241.444107,495.292328 
	C228.633652,494.306396 216.061905,491.929871 203.641830,488.628296 
	C197.776901,487.069275 192.233185,484.993164 187.389465,481.256378 
	C185.770386,480.007294 184.114075,478.759949 182.170639,480.845520 
	C173.601669,490.041412 162.334320,493.218842 150.456451,495.029999 
	C149.473099,495.179932 148.500397,495.403473 147.527588,495.614960 
	C147.378098,495.647491 147.254745,495.800171 146.967529,496.006134 
	C146.395096,498.576935 148.063828,500.641113 148.990753,502.859253 
	C156.361450,520.497253 153.386795,536.937500 142.496689,551.954895 
	C133.500870,564.360046 117.723099,567.494141 103.031113,559.977844 
	C82.745964,549.600037 70.710045,532.688965 66.053856,510.541718 
	C60.636395,484.773407 61.656601,459.271790 69.870300,434.151978 
	C73.124718,424.199097 77.840240,415.138214 85.362785,407.665802 
	C94.451347,398.637878 104.061531,397.313324 115.240562,403.676636 
	C116.334061,404.299103 117.328011,405.323547 118.867752,404.957153 
	C118.903961,402.945068 117.406174,401.650757 116.712250,400.017548 
	C115.076065,396.166595 113.415390,392.312958 114.130661,387.989777 
	C115.036560,382.514404 117.443306,380.849792 122.475365,383.137177 
	C128.671432,385.953735 134.519974,389.529724 140.549744,392.718872 
	C145.087860,395.119019 149.439270,399.717163 154.262268,399.214203 
	C158.992004,398.720947 161.262756,392.643646 164.622116,389.055237 
	C176.123322,376.769928 187.466904,364.362213 201.002914,354.189880 
	C204.011246,351.929108 206.529694,349.016479 210.365265,345.364746 
	C198.372559,343.456299 187.716888,340.467987 177.232193,345.893921 
	C172.152115,348.522949 172.007034,354.091064 171.223343,358.983459 
	C169.381851,370.479309 164.375076,379.658813 153.555267,385.180359 
	C145.182816,389.452972 137.080338,388.390503 129.061584,384.660278 
	C125.232239,382.878876 121.379684,381.676117 117.182365,381.139496 
	C103.711632,379.417328 98.135300,373.919128 96.032219,360.563110 
	C95.639275,358.067627 95.296158,355.531494 93.802040,353.478790 
	C85.591782,342.199066 91.962021,325.334412 101.610985,318.441833 
	C103.369453,317.185730 105.118500,315.751892 107.099434,314.997711 
	C123.493324,308.756195 138.277710,299.165070 154.447662,292.448792 
	C184.450531,279.986877 214.688095,279.849823 245.233139,290.172699 
	C248.804947,291.379791 252.272675,293.034821 256.828278,293.349640 
	C257.340607,284.575928 257.234528,276.296783 251.995331,268.897522 
	C244.050278,257.676849 232.850464,250.559067 221.011978,244.218765 
	C218.948730,243.113754 217.545624,244.180313 216.012924,245.213287 
	C212.698380,247.447113 209.359207,249.644501 206.050583,251.886978 
	C185.212921,266.010010 163.454056,265.546326 140.781006,256.704224 
	C120.687416,248.868073 108.902756,234.340866 104.491486,213.667770 
	C102.209015,202.971146 106.008148,192.862152 109.512711,183.010880 
	C119.055702,156.185638 138.707504,138.265884 162.284622,123.811081 
	C177.607895,114.416603 193.805527,106.381287 207.861328,94.992020 
	C216.964035,87.616188 224.392654,78.562027 232.443085,70.132629 
	C257.574371,43.818272 289.172485,35.390240 324.327667,37.282223 
	C340.711212,38.163960 356.692047,41.271042 371.810425,48.022911 
	C389.554474,55.947380 402.855255,69.292358 414.366089,84.294449 
	C425.188568,98.399429 438.546417,108.409393 455.063843,114.548668 
	C460.526581,116.579063 465.932404,118.776550 471.294769,121.060745 
	C495.473724,131.360153 516.188904,146.140762 529.707581,169.140381 
	C538.597351,184.264771 541.486877,201.211517 540.758362,218.661911 
	C540.481262,225.298935 539.488708,231.916534 538.595032,238.512192 
	C538.243896,241.104080 538.752563,242.663223 541.446472,243.330612 
	C550.383240,245.544556 555.591125,252.394562 560.636658,259.253296 
	C563.913513,263.707764 563.762695,268.779572 562.536316,274.083038 
	C556.794128,298.915314 530.153320,299.692902 516.543884,287.259155 
	C514.656250,285.534576 513.251404,283.307800 510.532074,286.225067 
	C496.329987,301.460693 477.670685,306.669250 457.998260,310.380798 
	C443.223328,313.168304 429.125946,310.020538 414.922607,307.703094 
	C397.691467,304.891693 380.635864,301.021179 363.461060,297.842773 
	C347.560211,294.900085 334.349335,299.663818 324.997375,313.039673 
	C319.611542,320.742859 318.277863,329.537323 321.137390,338.699463 
	C321.524078,339.938385 322.096649,341.222137 322.917755,342.205841 
	C327.983521,348.274933 343.327850,352.257477 350.594055,348.875916 
	C359.918030,344.536743 369.602509,341.848694 379.740784,340.436707 
	C385.049408,339.697388 389.955231,337.533417 394.907227,335.525726 
	C410.609650,329.159363 426.703125,324.601868 443.915680,325.598877 
	C467.433441,326.961121 487.485901,336.108246 503.745148,353.032837 
	C518.120605,367.996613 528.152588,385.474304 531.624451,406.220795 
	C539.436707,452.903137 508.200745,500.773438 462.593048,513.687744 
	C441.218231,519.740173 421.090942,516.600830 400.960876,509.449982 
	C396.535797,507.878052 392.696167,505.164185 388.949768,502.355682 
	C385.908386,500.075684 382.822174,497.855560 378.982025,495.041931 
	C379.849152,499.679474 380.851044,503.320007 381.166351,507.019073 
	C382.594208,523.768494 374.449402,535.705322 361.449066,544.956116 
	C344.148560,557.266907 324.751526,565.153015 304.613831,571.392456 
	C297.422180,573.620605 297.400940,573.552063 294.708588,577.223022 
	C302.852356,579.500854 311.033783,579.169250 319.044891,579.578552 
	C333.181305,580.300781 347.353485,580.298401 361.503632,580.798035 
	C364.425629,580.901245 369.084412,580.081726 369.223053,584.128479 
	C369.358704,588.088440 364.798370,587.113037 362.030762,587.419739 
	C345.601013,589.240173 329.073944,588.538879 312.604156,588.812866 
	C279.115234,589.369934 245.609680,589.163574 212.113358,588.930420 
	C197.131195,588.826111 182.152603,587.948364 167.177383,587.305481 
	C163.917587,587.165527 160.633377,586.643005 157.127579,583.113464 
	C169.914215,579.762085 182.068588,579.011108 194.520569,577.319214 
M322.418945,48.269527 
	C314.435547,48.291264 306.439148,47.774052 298.505920,49.262573 
	C277.307526,53.240059 257.967407,61.137516 241.947113,76.015190 
	C238.159561,79.532623 234.735535,83.440666 231.961945,87.801010 
	C229.276794,92.022377 230.226196,98.510948 233.712204,102.734184 
	C236.817612,106.496300 240.390549,104.434906 243.827530,103.533638 
	C247.207642,102.647278 250.487595,101.172386 253.913376,100.709038 
	C261.453918,99.689140 269.155487,102.673615 266.036804,113.444679 
	C259.405701,136.346817 248.984344,157.477783 237.930298,178.406784 
	C228.263153,196.709915 217.761841,214.418701 204.187408,230.200745 
	C198.997482,236.234711 193.616974,242.039856 187.877472,247.597427 
	C200.175339,244.424072 209.548141,237.175171 217.006439,227.197922 
	C225.992981,215.176239 234.142914,202.609497 241.671448,189.626816 
	C243.166107,187.049316 244.188187,183.825638 247.611008,183.063110 
	C249.611328,184.626053 248.648193,186.310898 248.401199,187.868759 
	C247.531738,193.352783 245.440979,198.408859 243.080505,203.402374 
	C239.224731,211.559067 234.421875,219.146500 229.678787,226.793259 
	C225.383942,233.717377 225.832047,234.627884 232.733643,238.677689 
	C253.343567,250.771484 268.095459,266.924286 269.182831,292.262878 
	C269.368774,296.595398 271.429993,299.428650 274.815247,301.643738 
	C284.475006,307.964508 294.893066,312.769501 305.560089,317.094330 
	C308.780853,318.400085 310.982178,317.572052 312.551331,314.518890 
	C314.777283,310.187775 317.882507,306.447937 321.062592,302.830505 
	C330.873596,291.670135 342.789673,285.692047 358.139893,287.475677 
	C367.102051,288.517059 375.888489,290.304077 384.657867,292.243683 
	C407.763214,297.354095 430.792450,302.172607 454.802765,300.047577 
	C485.521851,297.328735 507.565582,282.485229 521.395142,255.090622 
	C526.959229,244.068787 529.847168,232.417572 530.232849,220.067322 
	C530.662781,206.299347 529.499634,192.786652 523.852539,180.058884 
	C516.127686,162.648117 502.871460,150.279556 486.883881,140.546539 
	C473.858612,132.616959 459.559357,127.489952 445.455261,121.968178 
	C429.989105,115.913162 417.404694,106.626930 408.080109,92.509895 
	C388.113098,62.280674 358.257263,50.323704 322.418945,48.269527 
M364.763611,498.638031 
	C360.772888,495.795319 356.203735,494.722015 351.488953,495.316956 
	C345.893463,496.023010 340.306244,497.083710 334.842621,498.486298 
	C322.696594,501.604340 311.193695,506.424652 300.046783,512.167908 
	C297.071014,513.701111 294.102295,515.880676 290.165527,515.160461 
	C289.680939,511.286469 292.003418,508.667175 293.710693,505.976288 
	C297.612823,499.825989 300.164734,493.239258 301.358246,486.065552 
	C302.488403,479.272491 301.159546,476.905518 294.868164,473.863098 
	C288.562195,470.813751 281.892059,471.388153 275.247559,471.318878 
	C273.523529,471.300873 271.145569,472.021637 270.522400,469.684723 
	C269.943054,467.512115 272.125824,466.632599 273.596191,465.625366 
	C286.927490,456.493378 295.972443,443.672241 302.654602,429.448364 
	C314.875122,403.435394 314.363831,375.385162 313.351593,347.557709 
	C313.017059,338.360840 309.278381,330.165192 298.513947,327.586731 
	C294.217041,326.557556 290.277344,324.033386 286.178131,322.182922 
	C271.609558,315.606689 257.917725,307.263062 242.953857,301.432281 
	C214.328583,290.278198 186.143082,290.239258 158.105286,303.263977 
	C143.460098,310.067230 128.724548,316.675873 114.036972,323.388031 
	C109.732422,325.355194 105.875191,327.978821 103.075851,331.847961 
	C100.008598,336.087341 99.292473,340.734741 100.779709,346.042694 
	C111.491486,338.837067 114.556213,338.047119 118.829567,341.172607 
	C118.948235,342.697174 117.900635,343.617615 116.962563,344.526093 
	C114.450439,346.958984 111.753082,349.211182 109.353722,351.747467 
	C105.841316,355.460327 105.312248,361.547760 108.005844,366.154877 
	C110.427330,370.296539 114.332794,371.177490 118.787849,370.822296 
	C122.697884,370.510559 124.238159,367.409698 126.268143,364.807648 
	C128.603149,361.814636 129.773392,357.909454 133.255203,355.817841 
	C134.405533,355.126801 135.618668,354.412689 136.975800,355.242218 
	C138.324295,356.066498 138.342224,357.454926 138.164627,358.799652 
	C137.658096,362.634857 136.318710,366.200317 134.726074,369.714172 
	C133.811951,371.730988 131.848618,373.513397 132.735855,376.075592 
	C144.155136,380.937042 155.243912,376.539001 159.757431,365.288818 
	C161.734787,360.360138 163.089493,355.337982 163.042389,349.841797 
	C163.002533,345.191223 165.191635,341.211365 169.676880,338.876282 
	C178.170319,334.454468 187.112869,332.450287 196.681015,333.529266 
	C206.393417,334.624481 215.262863,338.646118 224.453644,341.548553 
	C225.919952,342.011597 227.373077,342.811646 227.561005,344.477173 
	C227.802063,346.613708 226.227417,347.936310 224.567139,348.681305 
	C214.250305,353.310822 207.420990,361.665344 201.148804,370.553406 
	C194.751114,379.619324 187.720856,387.914703 177.701904,393.255646 
	C174.635544,394.890259 171.941269,397.210541 169.012283,399.118073 
	C164.508835,402.050903 162.337601,406.345123 161.343643,411.469269 
	C159.899979,418.911774 159.905441,426.307281 161.086334,433.808258 
	C162.600540,443.426392 158.451004,447.791443 148.872787,447.110565 
	C146.346100,446.930969 144.040604,445.943146 141.763718,444.877838 
	C134.781113,441.610809 130.533844,435.703369 126.542618,429.459686 
	C122.390129,422.963776 117.623352,416.981018 110.900642,412.884247 
	C104.672104,409.088654 98.122734,409.508057 92.847961,414.041351 
	C90.026871,416.465942 87.856613,419.425934 86.198021,422.719879 
	C72.285576,450.349670 67.989594,479.179596 75.864151,509.370972 
	C77.333717,515.005249 78.869743,520.786072 82.374237,525.953430 
	C86.642632,523.139343 88.598785,519.109619 91.590500,516.048157 
	C92.531723,515.085022 93.591148,513.978882 95.039940,514.815063 
	C96.769859,515.813538 96.296692,517.391663 95.495522,518.738892 
	C94.222107,520.880188 92.911156,523.016052 91.421524,525.008789 
	C85.172211,533.369202 85.350838,535.028503 93.542778,541.784119 
	C94.440849,542.524780 95.449173,543.130798 96.356941,543.860779 
	C99.005630,545.990540 100.862320,545.810120 102.588928,542.517578 
	C104.932899,538.047791 106.452263,533.335632 107.966835,528.568848 
	C108.649734,526.419556 109.069366,523.489990 112.589661,523.818848 
	C113.863541,526.060486 113.239082,528.175964 112.591614,530.210266 
	C110.976929,535.283325 109.513084,540.430115 107.477699,545.335266 
	C105.913490,549.104919 107.241684,550.892761 110.555794,552.210144 
	C117.973953,555.158936 128.244751,552.810974 133.354019,546.469849 
	C143.183212,534.270752 147.244019,513.236389 135.060501,498.337067 
	C132.002350,494.597290 128.837250,490.932739 125.988258,487.038300 
	C123.908875,484.195923 121.622795,481.302216 121.565460,477.350861 
	C124.426262,476.721222 126.268173,478.501373 128.355515,479.279205 
	C133.339462,481.136444 138.155228,483.328613 143.597244,483.828094 
	C157.477493,485.102081 169.297150,481.003326 178.669312,470.630798 
	C181.635040,467.348541 183.934464,467.131409 187.420914,469.964630 
	C195.767685,476.747345 205.644211,480.010620 216.164291,481.858032 
	C225.051056,483.418549 234.021790,483.846649 242.960999,484.715240 
	C245.966843,485.007294 248.991394,485.085571 251.302765,487.421509 
	C257.509583,493.694305 260.363983,501.141174 259.654144,510.038940 
	C258.720734,521.738892 252.823700,531.035950 245.943237,540.002625 
	C242.315933,544.729736 237.549042,548.692139 235.444168,554.482300 
	C232.516754,562.535278 235.982285,567.790222 244.495605,567.908264 
	C253.489807,568.033020 262.517853,568.164490 271.481201,567.556824 
	C290.264160,566.283447 308.313416,561.862488 325.200226,553.310852 
	C331.616272,550.061707 331.792084,549.559448 330.173248,542.401184 
	C328.925690,536.884766 327.528290,531.402466 326.228119,525.897705 
	C325.863403,524.353516 325.812897,522.738281 327.688812,522.192688 
	C329.180511,521.758789 330.271912,522.787842 330.906433,524.013428 
	C331.668274,525.484924 332.290070,527.046326 332.810547,528.622253 
	C334.428772,533.522339 335.958954,538.451477 337.547211,543.361572 
	C338.200195,545.380310 339.088593,546.982849 341.746552,546.664673 
	C351.618561,545.483215 358.638885,533.555359 354.776123,524.259216 
	C353.756989,521.806396 352.308380,519.535461 351.182922,517.122253 
	C350.552399,515.770325 349.923401,514.143188 351.671661,513.160217 
	C353.147369,512.330505 354.202820,513.491028 355.041901,514.530396 
	C357.446533,517.509033 359.603424,520.708313 362.192139,523.512085 
	C365.198486,526.768127 367.469666,526.256287 369.436493,522.282532 
	C372.791290,515.504395 370.865417,504.629547 364.763611,498.638031 
M406.450165,444.925537 
	C421.006195,435.859894 434.645111,425.383057 449.552979,416.864014 
	C453.287018,414.730194 453.396698,412.407257 450.719879,409.292084 
	C441.541534,398.610992 429.841705,394.433228 415.998474,395.387726 
	C397.521088,396.661743 379.999847,401.584351 363.079285,408.921753 
	C356.304291,411.859650 353.844116,417.005890 355.934601,424.216431 
	C357.371521,429.172668 358.632446,434.194977 360.368652,439.045807 
	C362.763855,445.737488 363.483643,453.048645 367.987091,458.983917 
	C371.354401,463.421814 373.684113,464.227173 378.441956,461.756683 
	C387.911530,456.839661 396.829041,450.996246 406.450165,444.925537 
M314.867126,425.249664 
	C312.332489,433.799744 308.562317,441.686798 302.580841,448.417511 
	C301.035339,450.156647 299.552277,451.968750 298.208740,453.866455 
	C294.854675,458.604156 295.019104,460.079529 299.458191,463.627838 
	C307.918671,470.390533 312.696564,478.836212 311.936310,489.959808 
	C311.836853,491.415283 311.525635,492.959259 312.436707,494.303284 
	C313.636627,494.951935 314.713928,494.418396 315.817474,494.071198 
	C322.004089,492.124725 328.145355,490.011902 334.394470,488.291351 
	C345.775116,485.157959 357.189850,483.087677 368.320923,489.338928 
	C368.891266,489.659241 369.612183,489.621246 370.320038,488.751373 
	C369.426392,485.415527 366.790192,483.016174 364.694305,480.322968 
	C351.867645,463.840210 343.476715,445.848511 344.672699,424.303925 
	C344.949615,419.316162 345.089783,414.320160 345.970490,409.418243 
	C346.522614,406.345215 345.421387,405.044891 342.586304,404.703857 
	C336.809692,404.009033 331.011505,403.456940 325.263123,402.578522 
	C322.106537,402.096191 320.648315,403.117188 320.107147,406.244171 
	C319.028290,412.477478 317.187897,418.524841 314.867126,425.249664 
M458.775848,433.799286 
	C458.398865,429.868103 457.825989,425.994873 455.752106,422.526672 
	C453.088806,423.043030 451.302917,424.616455 449.367798,425.854431 
	C426.663574,440.379425 404.780090,456.182220 381.303833,469.510132 
	C379.131073,470.743652 376.458435,471.677887 376.937866,475.361389 
	C377.399475,478.907990 379.205933,481.070587 382.112335,482.725739 
	C392.393341,488.580872 403.436462,492.582397 414.570587,496.435730 
	C417.634003,497.495941 419.885712,497.218109 422.379791,495.312347 
	C433.600098,486.738953 443.355133,476.780121 450.512787,464.576813 
	C455.875122,455.434387 459.476898,445.620300 458.775848,433.799286 
M401.712646,355.245667 
	C400.685516,357.937439 401.602264,360.514526 402.233368,363.084991 
	C404.561554,372.568237 400.153320,383.197113 388.660034,384.599365 
	C382.167145,385.391479 379.176910,389.373474 375.927124,394.340118 
	C386.419189,391.982086 396.480743,389.234985 406.715790,387.528839 
	C424.221527,384.610748 440.085052,388.315460 453.444641,400.741364 
	C456.045868,403.160767 457.039459,408.204010 460.957184,407.942108 
	C464.539978,407.702576 467.931274,405.016937 471.469086,403.560242 
	C474.570465,402.283264 474.737396,400.719421 473.102386,397.828522 
	C460.696533,375.893768 444.275238,357.520538 424.262115,342.321198 
	C415.312531,335.524323 406.053040,338.780884 403.077240,349.593353 
	C402.635498,351.198456 402.310516,352.835632 401.712646,355.245667 
M466.801453,438.318359 
	C466.068695,449.326569 462.900940,459.445618 456.845428,468.810699 
	C450.921265,477.972717 444.013489,486.204620 436.175842,493.729279 
	C435.019928,494.839050 433.163818,495.876160 433.646393,497.732178 
	C434.224884,499.957062 436.516144,500.470551 438.438599,500.757568 
	C453.860352,503.060059 468.778717,503.066040 482.680450,493.982605 
	C488.774109,490.000977 491.627197,485.632355 491.785095,478.298431 
	C492.235748,457.369080 487.770172,437.294617 482.218781,417.374756 
	C481.466339,414.674866 480.894592,411.511627 477.952240,409.420990 
	C474.144806,411.542542 470.459900,413.804382 466.588165,415.680786 
	C463.956421,416.956177 463.353363,418.505157 464.252441,421.228241 
	C465.984375,426.473846 466.572327,431.944824 466.801453,438.318359 
M381.121613,350.961884 
	C372.928986,350.742645 365.338531,353.058685 358.091309,356.614746 
	C352.091187,359.558960 345.970032,360.936188 339.261688,359.551971 
	C334.128845,358.492828 328.900879,357.894501 323.569550,357.068665 
	C321.429565,365.602264 322.371155,373.994202 321.479919,382.231201 
	C320.413239,392.089478 320.806915,391.894867 330.599152,392.814545 
	C337.809296,393.491730 345.335114,392.792114 352.032867,396.504913 
	C354.035248,397.614868 355.178833,396.400330 356.269043,395.119385 
	C359.177887,391.701630 362.379608,388.462280 364.814423,384.727936 
	C368.837677,378.557251 373.439423,374.776093 381.290009,377.663971 
	C382.906342,378.258575 384.914703,377.805725 386.742310,377.803345 
	C389.237335,377.800079 391.337860,377.021606 392.508331,374.628510 
	C396.664368,366.130981 390.804352,351.006683 381.121613,350.961884 
M483.588470,396.663177 
	C486.109039,395.822998 489.483887,396.117706 488.899231,391.703522 
	C487.199280,378.869080 485.556396,366.024719 484.134613,353.157349 
	C483.738739,349.574585 482.030060,347.430908 479.051056,345.816162 
	C467.838043,339.738403 456.196747,334.922882 443.243469,334.578491 
	C439.254822,334.472473 435.014282,333.572418 431.174652,335.693573 
	C431.372223,338.084595 433.154938,338.932526 434.464172,340.122894 
	C449.255463,353.571228 463.488586,367.461700 473.971375,384.783356 
	C476.484924,388.936737 478.611389,393.645142 483.588470,396.663177 
M497.138489,449.580688 
	C499.215302,458.927704 498.991089,468.551239 499.978699,478.775452 
	C501.433838,477.514893 502.291321,476.976349 502.883911,476.228088 
	C511.345581,465.542297 517.435669,453.589752 521.669922,440.672180 
	C522.668396,437.625977 521.607788,435.029785 519.213806,433.091919 
	C509.680908,425.375122 501.561310,416.435181 495.276947,405.869110 
	C495.025330,405.446014 494.626099,405.113068 494.315857,404.722076 
	C492.410492,402.320953 490.370728,403.923584 488.448914,404.610687 
	C486.127869,405.440460 486.298798,407.181396 487.038177,409.113739 
	C491.937531,421.918213 494.573700,435.297089 497.138489,449.580688 
M503.487518,389.955109 
	C507.180481,388.542145 510.987091,387.367889 514.742004,384.736694 
	C509.047943,373.916656 503.360077,363.385773 493.003021,355.929016 
	C492.119965,362.557465 495.360992,387.520905 497.691559,391.711853 
	C499.317780,391.230560 501.038361,390.721344 503.487518,389.955109 
M514.343811,393.941162 
	C509.772247,395.734924 505.200653,397.528687 500.645264,399.316101 
	C504.456818,408.787201 515.787842,421.702454 522.408508,424.120758 
	C523.818787,414.328217 522.046509,404.963806 519.802979,395.657104 
	C519.190002,393.114319 517.248169,392.904175 514.343811,393.941162 
M126.136841,392.478424 
	C124.470085,391.642090 123.178825,389.947845 121.031708,389.953522 
	C120.563324,400.339783 134.755005,411.911102 149.876572,415.062500 
	C152.835968,408.150848 152.597549,407.169525 146.338196,403.635132 
	C139.844864,399.968506 133.260406,396.463287 126.136841,392.478424 
M142.799957,433.706482 
	C144.812332,435.044617 146.571014,436.946442 149.299332,436.761383 
	C150.713501,429.518799 150.209595,425.252167 147.044510,423.464935 
	C140.951508,420.024384 134.647888,416.956909 127.180840,413.086365 
	C132.480392,420.862915 136.062164,428.026886 142.799957,433.706482 
z"/>
<path fill="#FFFFFF" opacity="1.000000" stroke="none" 
	d="
M363.319519,146.207458 
	C367.480774,143.213715 371.573914,140.997284 376.556976,141.916718 
	C380.796478,142.698975 382.471832,145.797150 379.950989,149.117737 
	C373.387085,157.764053 366.046448,165.697906 356.116455,170.669067 
	C354.340332,171.558228 352.354736,172.532623 350.523712,170.888641 
	C348.549652,169.116211 348.562805,166.874847 349.340332,164.458282 
	C351.794678,156.830399 357.016541,151.341187 363.319519,146.207458 
z"/>
</svg>