<?xml version="1.0" standalone="no"?>
<!DOCTYPE svg PUBLIC "-//W3C//DTD SVG 20010904//EN"
 "http://www.w3.org/TR/2001/REC-SVG-20010904/DTD/svg10.dtd">
<svg version="1.0" xmlns="http://www.w3.org/2000/svg"
 width="720.000000pt" height="720.000000pt" viewBox="0 0 720.000000 720.000000"
 preserveAspectRatio="xMidYMid meet">
<metadata>
Created by potrace 1.16, written by Peter Selinger 2001-2019
</metadata>
<g transform="translate(0.000000,720.000000) scale(0.100000,-0.100000)"
fill="#000000" stroke="none">
<path d="M3400 3601 c-13 -26 -7 -39 62 -148 35 -53 64 -90 71 -87 14 7 124
156 139 190 9 19 8 28 -7 44 -25 27 -40 25 -85 -10 -47 -37 -56 -37 -100 0
-40 35 -65 38 -80 11z"/>
<path d="M2178 3577 c-14 -12 -36 -41 -47 -64 -11 -23 -25 -44 -29 -47 -9 -5
-353 13 -637 34 -326 23 -460 0 -542 -94 -41 -46 -49 -85 -27 -131 24 -51 59
-75 109 -75 36 0 48 5 69 31 40 47 34 89 -16 115 -31 16 -78 12 -78 -6 0 -5
16 -16 35 -24 39 -17 47 -49 17 -65 -41 -22 -102 33 -102 91 0 35 62 83 140
108 67 22 81 23 241 16 93 -4 315 -18 493 -31 308 -23 327 -25 377 -51 142
-71 172 -78 339 -78 144 0 170 3 360 43 289 61 372 60 543 -6 104 -40 104 -18
-1 44 -91 54 -319 51 -632 -9 -206 -39 -344 -42 -464 -10 -92 24 -110 37 -75
51 50 19 89 61 89 96 0 72 -103 112 -162 62z"/>
<path d="M4739 3571 c-16 -17 -29 -40 -29 -54 0 -36 36 -75 81 -88 22 -7 38
-17 36 -23 -5 -15 -96 -44 -179 -57 -105 -17 -224 -5 -458 42 -170 35 -225 43
-325 43 -140 1 -199 -14 -264 -70 -55 -47 -52 -60 7 -30 130 66 252 72 487 27
237 -45 354 -61 459 -61 128 0 186 13 291 65 79 39 102 46 190 54 234 24 603
43 756 39 143 -3 172 -7 223 -27 76 -30 106 -60 106 -105 0 -26 -7 -40 -31
-60 -49 -42 -89 -30 -89 26 0 25 3 28 35 28 39 0 46 14 16 30 -29 15 -39 13
-66 -15 -55 -54 -16 -135 64 -135 67 0 111 53 111 132 0 56 -37 99 -117 136
-52 23 -72 26 -200 30 -78 2 -290 -4 -470 -14 -180 -10 -355 -18 -388 -19 -58
0 -59 1 -65 30 -21 98 -118 139 -181 76z"/>
</g>
</svg>
